<svg width="512" height="512" viewBox="0 0 512 512" fill="none" xmlns="http://www.w3.org/2000/svg">
<g clip-path="url(#clip0_47_2)">
<path d="M255.989 114.424V239.438C255.357 239.617 255.097 240.265 254.669 240.646L169.546 314.006L169.286 307.497L169.444 280.401L169.207 227.148L168.982 169.981L168.812 156.472L100.333 146.899L100.164 181.365L99.9041 309.32L99.78 349.579V382.032L99.5994 438.326C98.7306 438.315 98.0649 437.991 97.0719 437.521L0.022567 391.839L0 87.4951C4.68265 87.8865 8.76728 88.3003 12.9986 88.7364L28.4006 90.3468L43.4076 91.9347L59.0691 93.5898C62.725 93.9812 66.268 94.2161 69.9803 94.641C74.4372 95.1554 78.7137 95.8152 83.2045 96.0501C85.9238 96.1955 88.4626 96.7546 91.1594 97.0118L104.011 98.2755L120.192 100.009L135.944 101.642C139.306 101.988 142.556 102.268 145.975 102.637L159.221 104.068C161.67 104.337 163.972 104.65 166.42 104.896L180.75 106.35L196.186 107.993L211.927 109.626L227.543 111.304L241.343 112.746C246.364 113.272 251.261 113.339 255.977 114.424H255.989Z" fill="#EB232A"/>
<path d="M254.668 240.646C255.041 240.701 255.435 240.344 255.876 240.646L255.921 312.921C255.921 313.95 255.289 314.487 255.052 315.135C254.928 315.169 254.781 315.102 254.657 315.135C254.465 315.202 254.352 315.404 254.206 315.527L99.9827 438.45C99.7909 438.349 99.6555 438.349 99.6104 438.327L99.7796 382.032V349.579L99.915 309.32L100.175 181.365L100.344 146.899L168.823 156.472L168.993 169.981L169.218 227.148L169.455 280.401L169.297 307.497L169.557 314.006L254.679 240.646H254.668Z" fill="#F5EB26"/>
<path d="M256.767 240.254C256.417 240.277 256.327 240.523 256.327 241.093V312.518C256.327 313.514 256.361 314.14 256.767 314.721C256.508 314.8 256.237 314.777 255.977 314.833C255.65 314.9 255.357 315.046 255.041 315.146C255.289 314.498 255.921 313.961 255.91 312.932L255.865 240.657C255.436 240.366 255.041 240.713 254.657 240.657C255.097 240.277 255.346 239.628 255.977 239.449C256.417 239.516 256.485 240.031 256.756 240.265L256.767 240.254Z" fill="#F0D932"/>
<path d="M254.194 315.527C254.341 315.404 254.454 315.214 254.646 315.135C254.849 315.448 254.409 315.471 254.194 315.527Z" fill="#F0D932"/>
<path d="M412.525 437.544C412.468 437.879 412.378 438.36 411.994 438.282C411.69 438.226 411.441 438.08 411.182 437.969C411.013 437.644 410.877 437.432 410.358 437.018L256.767 314.721C256.361 314.14 256.327 313.525 256.327 312.518V241.093C256.327 240.522 256.417 240.276 256.767 240.254L342.364 313.994L342.612 303.259L342.86 249.871L343.052 194.337L343.255 156.505L411.69 146.944L411.893 235.535L412.085 350.831L412.265 437.342C412.333 437.588 412.412 437.644 412.525 437.544Z" fill="#F5EB27"/>
<path d="M256.011 512C203.464 487.845 151.458 463.488 99.9717 438.45L254.195 315.527C254.409 315.471 254.849 315.449 254.646 315.135C254.759 315.091 254.917 315.158 255.041 315.135C255.357 315.046 255.661 314.889 255.977 314.822L256.011 512Z" fill="#EB232A"/>
<path d="M256.767 314.71L410.358 437.007C410.877 437.421 411.013 437.633 411.182 437.958L258.528 511.139C257.467 511.642 256.892 512.011 256.011 511.989L255.978 314.811C256.237 314.755 256.508 314.789 256.767 314.699V314.71Z" fill="#224290"/>
<path d="M412.524 437.544C412.423 437.656 412.332 437.6 412.265 437.343L412.084 350.831L411.892 235.535L411.689 146.944L343.255 156.505L343.052 194.337L342.86 249.872L342.612 303.259L342.363 313.995L256.767 240.254C256.496 240.019 256.417 239.505 255.988 239.438V114.424L512.011 87.3611V389.368L412.536 437.544H412.524Z" fill="#224290"/>
<path d="M44.7499 61.2826L55.7174 63.1389L52.039 8.62205L64.4734 10.4784L68.9868 80.4166L9.27455 70.0388L3.53125 0L16.3267 2.34842L20.8401 57.1337L31.8528 59.1131L27.8021 4.52909L40.8006 6.73213L44.7499 61.2826Z" fill="black"/>
<path d="M275.329 64.4361C274.211 60.6227 275.656 56.7422 275.035 52.817L284.4 52.3138L284.457 40.0349H273.422L273.523 64.9058L273.625 94.44L260.908 94.4623V24.9379L278.42 24.7478L290.708 24.39C293.506 24.3117 295.921 25.2511 297.049 27.7449C298.178 30.2387 298.336 32.6318 298.302 35.2934L298.053 51.2738C297.997 54.651 297.918 57.9947 296.18 60.8799C294.533 63.6086 291.464 64.3019 288.135 63.9776L297.399 93.8361L284.073 94.3617L275.34 64.4473L275.329 64.4361Z" fill="black"/>
<path d="M492.118 46.2304L485.28 47.0915L486.341 32.9227L506.2 29.1764L502.849 70.9335L466.369 77.4532L471.21 7.42558L508.4 0.771729L503.661 16.7969L483.136 20.6438L480.282 59.6611C484.028 59.5269 487.526 58.5428 491.328 57.8942L492.129 46.2416L492.118 46.2304Z" fill="black"/>
<path d="M346.629 36.2886C343.086 36.2215 339.78 36.5682 336.169 36.8925L334.713 89.9108C334.691 90.6936 334.747 92.181 333.777 92.2481C329.783 92.5165 325.901 92.8408 321.816 92.796L323.328 23.2605L360.18 20.845L357.811 90.5818L345.004 91.4876L346.618 36.2886H346.629Z" fill="black"/>
<path d="M450.911 25.0611C447.514 24.9269 444.31 25.9669 440.541 26.2912L437.021 81.8816L424.293 83.5814L428.141 13.7327L464.925 8.46558L460.174 78.3254L447.424 80.3719L450.899 25.0611H450.911Z" fill="black"/>
<path d="M125.36 87.3724C114.426 86.802 104.249 85.0687 93.8115 83.9057L96.6098 69.0771L116.209 71.3137L115.701 59.5045L97.8848 57.1896C94.9511 56.8094 92.4123 53.4098 92.2092 50.3121L90.4715 23.4059C90.2572 20.1517 91.7127 14.3589 95.8763 14.8174L127.414 18.3177L124.503 33.2357L104.666 31.1781L105.174 43.9602L121.716 45.7383C128.305 46.4428 128.982 53.2979 129.163 58.3974L129.986 81.725C130.065 83.9839 128.125 87.5401 125.349 87.3947L125.36 87.3724Z" fill="black"/>
<path d="M168.181 64.056L148.017 62.7141L148.254 73.3267C148.265 73.9305 148.728 74.4114 149.27 74.6127L172.096 76.2901L169.004 91.4095L136.113 88.6809L133.27 18.9216L170.528 21.941L167.334 36.9933L146.911 35.4277L147.385 48.2992L167.673 49.9431L168.181 64.0784V64.056Z" fill="black"/>
<path d="M231.504 64.9617C231.007 75.1494 231.865 83.7714 231.56 94.2834L218.697 93.7466L218.55 79.4324L218.347 63.2843L218.133 47.0355L217.975 31.9385C217.952 29.4111 217.636 27.018 217.918 24.4124L247.842 24.8149C250.336 24.8485 252.513 25.4971 253.743 27.812C254.691 29.6012 255.368 31.8155 255.368 34.0073V56.2614C255.368 59.4038 253.732 64.2125 249.963 65.2189L231.526 64.9505L231.504 64.9617ZM241.873 52.6381L241.546 40.0349L230.996 39.8895C231.334 44.2062 231.131 48.1537 231.188 52.7388C234.731 52.8506 238.285 53.0407 241.873 52.6381Z" fill="black"/>
<path d="M375.345 89.0834L377.433 33.7949L365.653 34.6337C365.438 30.3841 365.653 25.1841 366.115 20.409L402.674 16.8528L401.941 31.1222L389.867 32.4977L387.374 87.8869L375.334 89.0946L375.345 89.0834Z" fill="black"/>
<path d="M303.233 83.995L303.447 69.7926L303.662 55.635L303.887 40.7394C303.977 35.092 303.65 29.6794 304.339 24.0768L316.626 23.5847L315.205 93.165L303.188 93.6459C303.143 90.414 303.188 87.3611 303.233 84.0062V83.995Z" fill="black"/>
<path d="M417.715 84.3978L405.607 85.8851L409.026 16.2042L421.483 14.6721L417.715 84.3978Z" fill="black"/>
<path d="M87.2331 82.8209C83.1711 82.7538 79.3234 81.8256 75.1485 81.3112L70.8721 11.4961L83.329 13.1735L87.2219 82.8209H87.2331Z" fill="black"/>
</g>
<defs>
<clipPath id="clip0_47_2">
<rect width="512" height="512" fill="white"/>
</clipPath>
</defs>
</svg>
